<svg xmlns="http://www.w3.org/2000/svg" width="580.784" height="178.625"><path d="M154.29 46.228H99.933l-22.8 62.4-22.8-62.4H-.015v130.065h39.359V98.098l29.03 78.195h17.535l29.03-78.195v78.195h39.355V46.228zm109.3 0h-49.488l-47.928 130.065h44.616l4.676-15.21h46.759l4.676 15.21h44.616zm-37.6 80.535l12.854-41.925 12.859 41.925h-25.717zm136.765 8.581h30q22.014 0 34.388-12.772t12.371-31.688q0-19.108-12.371-31.882t-34.388-12.773H323.4v130.064h39.355v-40.949zm0-34.32v-20.48h24.939a13.362 13.362 0 0 1 8.572 2.633q3.311 2.632 3.312 7.7a9.035 9.035 0 0 1-3.312 7.508 13.362 13.362 0 0 1-8.572 2.632h-24.939zm181.289 74.2a52.56 52.56 0 0 0 17.24-9.263 74.7 74.7 0 0 0 11.69-11.992 63.54 63.54 0 0 0 7.79-13.358l-33.9-15.6a27.866 27.866 0 0 1-9.54 13.358 24.521 24.521 0 0 1-15.59 5.557q-14.025 0-22.795-9.36t-8.767-23.2q0-13.843 8.767-23.2t22.795-9.36a24.522 24.522 0 0 1 15.59 5.558 27.877 27.877 0 0 1 9.54 13.357l33.9-15.795a67.482 67.482 0 0 0-21.33-26.91q-14.325-10.918-37.7-10.92-30.975 0-51.24 18.72t-20.262 48.555q0 29.643 20.359 48.458t51.143 18.817a70.191 70.191 0 0 0 22.31-3.425zM19.82.396H.634v24.679h1.183V1.506h16.82v23.569h1.183V.396zm12.107 24.087a13.525 13.525 0 0 0 2.421-3.4L45.771.4h-1.368l-9.131 16.576L26.144.396h-1.37l9.8 17.8-1.257 2.331a13.747 13.747 0 0 1-2.089 3.09 2.994 2.994 0 0 1-2.162.8 4.152 4.152 0 0 1-3.512-2.035l-.961.777a5.083 5.083 0 0 0 4.473 2.368 4.07 4.07 0 0 0 2.861-1.044zM69.911.396h-1.183v11.433H51.907V.396h-1.183v24.679h1.183V12.944h16.821V25.08h1.183V.396zm12.31 11.8l10.72-11.8h-1.589L78.524 14.644V.396h-1.18v24.679h1.183v-8.917l2.957-3.219 10.98 12.136h1.589zm24.805-10.693h8.355V.393H97.525v1.11h8.319v23.569h1.183V1.506zm43.658-1.11h-1.183v11.433h-16.82V.396h-1.183v24.679h1.183V12.944h16.82V25.08h1.183V.396zm16.635 0h-1.4l-10.277 24.679h1.367l2.736-6.623h13.752l2.736 6.623h1.368zm-7.134 16.951l6.432-15.577 6.432 15.577h-12.864zm35.192 6.216a6.367 6.367 0 0 0 2.256-5.032 5.849 5.849 0 0 0-1.017-3.422 6.162 6.162 0 0 0-2.237-2.072 6.75 6.75 0 0 0-2.366-.722 7.413 7.413 0 0 0 3.586-1.757 5.088 5.088 0 0 0 1.664-4.089 5.532 5.532 0 0 0-2.348-4.717 9.214 9.214 0 0 0-5.6-1.721 10.107 10.107 0 0 0-8.133 3.7l.924.74a10.334 10.334 0 0 1 3.216-2.516 9.166 9.166 0 0 1 3.993-.814 7.734 7.734 0 0 1 4.732 1.425 4.6 4.6 0 0 1 1.922 3.9 4.5 4.5 0 0 1-1.922 3.959 8.11 8.11 0 0 1-4.732 1.332h-5.171v1.11h5.176a8.507 8.507 0 0 1 5.046 1.406 4.876 4.876 0 0 1 1.978 4.255 5.291 5.291 0 0 1-1.9 4.311 7.913 7.913 0 0 1-5.194 1.572 9.7 9.7 0 0 1-4.566-1.017 7.905 7.905 0 0 1-3.013-2.646l-1.035.629a8.546 8.546 0 0 0 3.383 2.979 11.082 11.082 0 0 0 5.194 1.165 9.086 9.086 0 0 0 6.164-1.96zM223.436.398h-1.183v11.433h-16.82V.396h-1.183v24.679h1.183V12.944h16.82V25.08h1.183V.396zm16.635 0h-1.4l-10.277 24.679h1.368l2.736-6.623h13.746l2.735 6.623h1.365zm-7.135 16.946l6.433-15.577 6.432 15.577h-12.865zM254.488.398v6.216a7.7 7.7 0 0 0 2.089 5.643 8.038 8.038 0 0 0 6.007 2.127 34.316 34.316 0 0 0 6.469-.74v11.433h1.183V.396h-1.183v12.136a28.089 28.089 0 0 1-6.469.74 7.053 7.053 0 0 1-5.12-1.739 6.485 6.485 0 0 1-1.793-4.884V.396h-1.183zm38.261 23.569h-13.9V12.944h13.641v-1.11h-13.641V1.506h13.9V.396h-15.083v24.679h15.083v-1.11zM318.405.398h-1.183v11.433h-16.821V.396h-1.183v24.679h1.183V12.944h16.821V25.08h1.183V.396zm25.248 1.924v22.755h1.183V.396h-1.183l-16.635 22.533V.396h-1.183v24.679h1.183zm16.413 12.1h5.915v10.656h1.183V.396h-8.5a7.491 7.491 0 0 0-5.213 1.869 7.376 7.376 0 0 0 .019 10.267 7.459 7.459 0 0 0 5.194 1.887l-7.62 10.656h1.516zm-5.748-2.775a5.8 5.8 0 0 1-1.645-4.255 5.736 5.736 0 0 1 1.645-4.236 5.87 5.87 0 0 1 4.344-1.647h7.319v11.8h-7.319a5.832 5.832 0 0 1-4.344-1.665zm22.088-3.478a1.2 1.2 0 0 0-.351-.851 1.205 1.205 0 0 0-1.738 0 1.2 1.2 0 0 0-.351.851 1.109 1.109 0 0 0 .37.833 1.2 1.2 0 0 0 1.7 0 1.113 1.113 0 0 0 .37-.836zm0 16.021a1.114 1.114 0 0 0-.37-.832 1.2 1.2 0 0 0-1.7 0 1.111 1.111 0 0 0-.37.832 1.22 1.22 0 1 0 2.44 0zM417.424.404H396.87v24.679h3.068V3.144h14.418v21.941h3.068V.404zm17.855 0h-3.808l-9.907 24.679h3.512l2.181-5.476h12.273l2.181 5.476h3.512zm-7.135 16.465l5.25-13.283 5.212 13.283h-10.462zM469.917.404h-3.068v10.619h-14.417V.404h-3.069v24.679h3.069V13.761h14.417v11.322h3.068V.404zm15.859 2.738h7.837V.404h-18.705v2.74h7.8v21.941h3.068V3.144zm28.978 19.202h-13.08v-8.51h12.83v-2.738h-12.83V3.144h13.08V.404h-16.15v24.679h16.15v-2.739zm25.86-.444a13.921 13.921 0 0 0 0-18.278 12.552 12.552 0 0 0-17.65 0 13.983 13.983 0 0 0 0 18.278 12.552 12.552 0 0 0 17.65.001zm-15.39-1.942a11.709 11.709 0 0 1 0-14.412 9.081 9.081 0 0 1 13.14 0 11.672 11.672 0 0 1 0 14.412 9.041 9.041 0 0 1-13.14.001zm45.1-19.555h-3.07v10.619h-14.42V.404h-3.07v24.679h3.07V13.761h14.42v11.322h3.07V.404zm9.63 21.738a2.158 2.158 0 0 0-1.65-.759 1.885 1.885 0 0 0-1.39.592 1.96 1.96 0 0 0-.57 1.406 1.918 1.918 0 0 0 .5 1.351 1.669 1.669 0 0 0 1.28.536 1.225 1.225 0 0 0 .51-.074 4.249 4.249 0 0 1-.79 1.869 5.748 5.748 0 0 1-1.61 1.572l1.37 1.147a7.639 7.639 0 0 0 2.18-2.46 6.219 6.219 0 0 0 .85-3.127 2.979 2.979 0 0 0-.68-2.05z"/></svg>