<svg xmlns="http://www.w3.org/2000/svg" width="208.25" height="74.906"><path d="M55.273 27.384H35.802l-8.165 22.4-8.165-22.4H.002v46.691h14.1v-28.07l10.4 28.07h6.281l10.4-28.07v28.07h14.1v-46.69zm39.15 0H76.697L59.529 74.075h15.982l1.675-5.46h16.748l1.675 5.46h15.982zm-13.469 28.91l4.606-15.05 4.606 15.05h-9.212zm48.99 3.08h10.747q7.886 0 12.318-4.585a16.906 16.906 0 0 0 0-22.82q-4.432-4.584-12.318-4.585h-24.844v46.691h14.1v-14.7zm0-12.32v-7.35h8.933a4.777 4.777 0 0 1 3.07.945 3.325 3.325 0 0 1 1.187 2.765 3.245 3.245 0 0 1-1.187 2.7 4.777 4.777 0 0 1-3.07.945h-8.933zm64.936 26.635a18.814 18.814 0 0 0 6.176-3.325 26.778 26.778 0 0 0 4.187-4.305 22.849 22.849 0 0 0 2.792-4.795l-12.143-5.6a9.991 9.991 0 0 1-3.42 4.8 8.762 8.762 0 0 1-5.583 2 10.666 10.666 0 0 1-8.165-3.36 12.619 12.619 0 0 1 0-16.66 10.666 10.666 0 0 1 8.165-3.36 8.762 8.762 0 0 1 5.583 1.995 10 10 0 0 1 3.42 4.8l12.143-5.67a24.245 24.245 0 0 0-7.642-9.66q-5.128-3.919-13.5-3.92-11.1 0-18.354 6.72t-7.258 17.43q0 10.641 7.293 17.395t18.319 6.755a25.086 25.086 0 0 0 7.987-1.24zM7.145.142H.419v8.671h.415V.532h5.9v8.281h.415V.142zm4.244 8.463a4.754 4.754 0 0 0 .849-1.2l4-7.267h-.474l-3.2 5.824-3.2-5.824h-.48l3.435 6.257-.441.819a4.84 4.84 0 0 1-.732 1.085 1.048 1.048 0 0 1-.758.28 1.455 1.455 0 0 1-1.231-.715l-.337.273a1.781 1.781 0 0 0 1.568.832 1.428 1.428 0 0 0 1.002-.364zM24.706.142h-.414v4.017h-5.9V.142h-.412v8.671h.415V4.549h5.9v4.264h.415V.142zm4.316 4.147L32.781.142h-.562l-4.5 5v-5h-.408v8.671h.415V5.68l1.037-1.131 3.849 4.264h.557zm8.7-3.757h2.929v-.39h-6.26v.39h2.916v8.281h.412V.532zm15.306-.39h-.414v4.017h-5.9V.142h-.415v8.671h.415V4.549h5.9v4.264h.414V.142zm5.833 0h-.493l-3.6 8.671h.48l.959-2.327h4.812l.959 2.327h.48zm-2.5 5.954L58.616.623l2.255 5.473h-4.51zM68.699 8.28a2.239 2.239 0 0 0 .791-1.768 2.064 2.064 0 0 0-.356-1.2 2.163 2.163 0 0 0-.785-.728 2.357 2.357 0 0 0-.829-.253 2.6 2.6 0 0 0 1.257-.618 1.787 1.787 0 0 0 .583-1.436 1.945 1.945 0 0 0-.823-1.658 3.223 3.223 0 0 0-1.963-.6 3.537 3.537 0 0 0-2.851 1.3l.324.26a3.623 3.623 0 0 1 1.127-.884 3.2 3.2 0 0 1 1.4-.286 2.712 2.712 0 0 1 1.659.5 1.617 1.617 0 0 1 .674 1.372 1.584 1.584 0 0 1-.674 1.391 2.841 2.841 0 0 1-1.659.468h-1.815v.39h1.815a2.978 2.978 0 0 1 1.769.494 1.714 1.714 0 0 1 .693 1.5 1.859 1.859 0 0 1-.667 1.514 2.767 2.767 0 0 1-1.821.553 3.388 3.388 0 0 1-1.6-.358 2.781 2.781 0 0 1-1.056-.929l-.363.221a3 3 0 0 0 1.186 1.046 3.88 3.88 0 0 0 1.821.41 3.183 3.183 0 0 0 2.157-.701zM78.536.142h-.417v4.017h-5.9V.142h-.415v8.671h.415V4.549h5.9v4.264h.414V.142zm5.832 0h-.492l-3.6 8.671h.479l.959-2.327h4.822l.959 2.327h.479zm-2.5 5.954L84.123.623l2.255 5.473h-4.51zM89.424.142v2.184a2.71 2.71 0 0 0 .732 1.982 2.813 2.813 0 0 0 2.106.748 12.047 12.047 0 0 0 2.268-.26v4.017h.415V.142h-.426v4.264a9.853 9.853 0 0 1-2.268.26 2.471 2.471 0 0 1-1.795-.611 2.282 2.282 0 0 1-.629-1.716v-2.2h-.408zm13.414 8.281h-4.873V4.549h4.782v-.39h-4.782V.532h4.873v-.39H97.55v8.671h5.288v-.39zm8.994-8.281h-.415v4.017h-5.9V.142h-.418v8.671h.414V4.549h5.9v4.264h.415V.142zm8.852.676v7.995h.415V.142h-.415l-5.832 7.917V.142h-.415v8.671h.415zm5.754 4.251h2.074v3.744h.407V.142h-2.98a2.625 2.625 0 0 0-1.828.656 2.6 2.6 0 0 0 .007 3.608 2.611 2.611 0 0 0 1.821.663l-2.67 3.744h.531zm-2.015-.975a2.038 2.038 0 0 1-.577-1.5 2.017 2.017 0 0 1 .577-1.489 2.057 2.057 0 0 1 1.523-.578h2.566v4.148h-2.573a2.042 2.042 0 0 1-1.52-.581zm7.737-1.219a.422.422 0 0 0-.123-.3.423.423 0 0 0-.61 0 .422.422 0 0 0-.123.3.391.391 0 0 0 .13.292.42.42 0 0 0 .6 0 .391.391 0 0 0 .126-.292zm0 5.629a.394.394 0 0 0-.13-.293.422.422 0 0 0-.6 0 .394.394 0 0 0-.13.293.428.428 0 1 0 .856 0zM151.024.151h-7.205v8.671h1.076V1.113h5.054v7.709h1.076V.151zm6.26 0h-1.335l-3.474 8.671h1.232l.764-1.924h4.3l.765 1.924h1.231zm-2.5 5.785l1.841-4.667 1.827 4.667h-3.668zM169.43.151h-1.076v3.724h-5.055V.144h-1.08v8.671h1.075V4.837h5.055v3.978h1.076V.144zm5.56.962h2.747V.151h-6.558v.962h2.735v7.709h1.076V1.113zm10.16 6.747h-4.588V4.87h4.5v-.965h-4.5V1.11h4.588V.148h-5.663v8.671h5.663v-.962zm9.066-.156a4.9 4.9 0 0 0 0-6.422 4.4 4.4 0 0 0-6.189 0 4.921 4.921 0 0 0 0 6.422 4.4 4.4 0 0 0 6.192-.003zm-5.4-.683a4.126 4.126 0 0 1 0-5.063 3.179 3.179 0 0 1 4.607 0 4.1 4.1 0 0 1 0 5.063 3.164 3.164 0 0 1-4.604-.003zm15.812-6.87h-1.076v3.724h-5.055V.144h-1.078v8.671h1.075V4.837h5.055v3.978h1.076V.144zm3.376 7.637a.751.751 0 0 0-.577-.266.65.65 0 0 0-.486.208.685.685 0 0 0-.2.494.672.672 0 0 0 .175.474.583.583 0 0 0 .447.189.452.452 0 0 0 .182-.026 1.49 1.49 0 0 1-.279.656 2.015 2.015 0 0 1-.564.553l.48.4a2.7 2.7 0 0 0 .765-.865 2.206 2.206 0 0 0 .3-1.1 1.039 1.039 0 0 0-.243-.72z"/></svg>