<svg xmlns="http://www.w3.org/2000/svg" viewBox="0 0 72.17 73.06"><path d="M49.25 29.8A32.56 32.56 0 0 0 32.54 0S13.51 15.89 17 29.21c0 0 9.87 3.13 13 12.12.05.13.09.26.13.39a59.79 59.79 0 0 1 4.18-22.65s-3.45 23-.6 30.4c.03.01 2.17-14.67 15.54-19.67z"/><path d="M13.45 39.34s9.92 4.44 16.71 12.52c.44.54.55-21.76-29.84-24.44 0 0-5.85 39.14 32.22 36.36a63.43 63.43 0 0 0-19.09-24.44zm56.89-12S34 26.59 35.46 62.18c0 0 9.3-15.77 24-21.78 0 0-22.6 13.41-21.8 32.66-.02 0 43.88-5.73 32.68-45.72z"/></svg>