<svg xmlns="http://www.w3.org/2000/svg" viewBox="0 0 59.2 45.1"><path d="M2.5 41.6a8.27 8.27 0 0 0-2.5.2l1.2 3.1c0 .1 4 .2 5.3.2h41.8c1.4 0 5.3-.1 5.3-.2l1.2-3.1a8.27 8.27 0 0 0-2.5-.2zM47.6 5.8h-.3l.3-4A1.79 1.79 0 0 0 45.8 0H31.5v19l5.8 1.9L33.6 32l-11.1-3.7 3.7-11.2 4.6 1.5V0H9.1a1.79 1.79 0 0 0-1.8 1.8l3 36.7a1.79 1.79 0 0 0 1.8 1.8h30.7a1.79 1.79 0 0 0 1.8-1.8l.8-9.7a15 15 0 0 0 2.2.2 11.6 11.6 0 1 0 0-23.2zm5.87 16.44a8.35 8.35 0 0 1-1 1A7.61 7.61 0 0 1 47.6 25a5.84 5.84 0 0 1-1.9-.2l1.2-15h.7a7.61 7.61 0 0 1 5.87 12.44z"/></svg>