<svg xmlns="http://www.w3.org/2000/svg" viewBox="0 0 34 48"><path d="M31.81 41.3H23a13.57 13.57 0 0 0 5.87-20.77 6.07 6.07 0 0 0 .54-2.48 6 6 0 0 0-5.43-6l1.55-2.53a2.18 2.18 0 0 0-.68-3l2.87-4.68L24.56 0l-2.87 4.68a2.19 2.19 0 0 0-3 .74L9.12 21.08l-1.68-1-2.39 3.86 10.12 6.21 2.39-3.89-1.69-1 2.44-4A6 6 0 0 0 23.37 24a6.15 6.15 0 0 0 1.43-.18 8.36 8.36 0 0 1-10.71 12.27h2.27v-3.23H0v3.23h6.58A13.66 13.66 0 0 0 13 41.3H3a2.19 2.19 0 0 0-2.24 2.19v2.33A2.19 2.19 0 0 0 2.94 48h28.87A2.19 2.19 0 0 0 34 45.82v-2.34a2.19 2.19 0 0 0-2.19-2.18z"/></svg>