<svg xmlns="http://www.w3.org/2000/svg" viewBox="0 0 96 96"><path fill="#e12457" d="M48 0a48 48 0 1 0 40.59 22.38A10.93 10.93 0 0 0 90 17 11 11 0 0 0 79 6a10.78 10.78 0 0 0-5.37 1.44A47.87 47.87 0 0 0 48 0zm0 6a41.72 41.72 0 0 1 21.31 5.81A10.86 10.86 0 0 0 68 17a11 11 0 0 0 11 11 10.84 10.84 0 0 0 5.22-1.31A42 42 0 1 1 48 6zm0 13a29 29 0 0 0-25.72 42.41A8.78 8.78 0 0 0 21 66a9 9 0 0 0 9 9 8.87 8.87 0 0 0 4.59-1.28A29 29 0 1 0 48 19zm0 6a23 23 0 1 1-9.5 43.94A9 9 0 0 0 27.06 57.5 23 23 0 0 1 48 25zm0 11a12 12 0 1 0 12 12 12 12 0 0 0-12-12zm0 6a6 6 0 1 1-6 6 6 6 0 0 1 6-6z"/></svg>