<svg xmlns="http://www.w3.org/2000/svg" xmlns:xlink="http://www.w3.org/1999/xlink" width="1055" height="606"><defs><linearGradient id="a" x1="11" y1="300.5" x2="2447" y2="300.5" gradientUnits="userSpaceOnUse"><stop offset="0" stop-color="#a044ff"/><stop offset="1" stop-color="#6a3093"/></linearGradient><linearGradient id="b" x1="167" x2="2291.56" xlink:href="#a"/></defs><path data-name="Фигура 1 копия 2" d="M11 512.749V216.3S168.244-5 606.08-5c436.85 0 690.08 254.7 1020.46 254.7 286.65 0 459.79-166.181 650.12-215.729s169.69 36.187 169.69 36.187L2415.4 606z" transform="translate(-11)" fill="url(#a)" fill-rule="evenodd" opacity=".28"/><path data-name="Фигура 1 копия 2" d="M167 485.743V227.009S304.141 33.87 686 33.87c381 0 601.85 222.292 890 222.292 250 0 401-145.036 567-188.28s148 31.583 148 31.583l-27 467.664z" transform="translate(-11)" fill="url(#b)" fill-rule="evenodd" opacity=".28"/></svg>