<svg xmlns="http://www.w3.org/2000/svg" viewBox="0 0 100 125"><path fill="#883eca" d="M5.1 15.5c-2 2.1-3.1 4.8-3.1 7.7v53.5c0 2.9 1.1 5.6 3.1 7.7 2.1 2.2 5 3.4 8 3.4h73.8c6.1 0 11.1-5 11.1-11.1V23.2c0-6.1-5-11.1-11.1-11.1H13.1c-3 0-5.9 1.3-8 3.4zm11.8 11.9c1.3-1.4 3.4-1.5 4.9-.3L50 51.9l28.2-24.7c1.5-1.3 3.7-1.1 4.9.3 1.2 1.4 1.1 3.4-.1 4.7l-16.7 17L83.1 68c1.3 1.5 1.1 3.7-.3 4.9-1.4 1.2-3.4 1.1-4.7-.1L60.4 55.3l-4.8 4.9c-1.5 1.4-3.5 2.2-5.6 2.2-2.1 0-4.1-.8-5.6-2.2l-4.8-4.9-17.7 17.4c-1.4 1.3-3.6 1.3-4.9 0-1.3-1.3-1.3-3.4-.1-4.7l16.8-18.7L17 32.2c-1.3-1.3-1.3-3.4-.1-4.8z"/></svg>