<svg xmlns="http://www.w3.org/2000/svg" xmlns:xlink="http://www.w3.org/1999/xlink" width="1338" height="611"><defs><linearGradient id="a" x1="582" y1="576.5" x2="3018" y2="576.5" gradientUnits="userSpaceOnUse"><stop offset="0" stop-color="#a044ff"/><stop offset="1" stop-color="#6a3093"/></linearGradient><linearGradient id="b" x1="738" x2="2862.56" xlink:href="#a"/></defs><path data-name="Фигура 1 копия 2" d="M582 788.749V492.3S739.244 271 1177.08 271c436.85 0 690.08 254.7 1020.46 254.7 286.65 0 459.79-166.181 650.12-215.73s169.69 36.187 169.69 36.187L2986.4 882z" transform="translate(-582 -271)" fill="url(#a)" fill-rule="evenodd" opacity=".28"/><path data-name="Фигура 1 копия 2" d="M738 761.743V503.009s137.141-193.14 519-193.14c381 0 601.85 222.293 890 222.293 250 0 401-145.036 567-188.28s148 31.582 148 31.582l-27 467.665z" transform="translate(-582 -271)" fill="url(#b)" fill-rule="evenodd" opacity=".28"/></svg>