<svg width="43" height="55" viewBox="0 0 43 55" fill="none" xmlns="http://www.w3.org/2000/svg">
<path d="M42.0559 13.6049C42.4191 13.9682 42.625 14.4586 42.625 14.9732V52.3125C42.625 53.3842 41.7592 54.25 40.6875 54.25H1.9375C0.86582 54.25 0 53.3842 0 52.3125V1.9375C0 0.86582 0.86582 0 1.9375 0H27.6518C28.1664 0 28.6629 0.205859 29.0262 0.569141L42.0559 13.6049ZM38.1566 15.8633L26.7617 4.46836V15.8633H38.1566ZM9.6875 25.3086C9.55904 25.3086 9.43583 25.3596 9.34499 25.4505C9.25416 25.5413 9.20312 25.6645 9.20312 25.793V28.6992C9.20312 28.8277 9.25416 28.9509 9.34499 29.0417C9.43583 29.1326 9.55904 29.1836 9.6875 29.1836H32.9375C33.066 29.1836 33.1892 29.1326 33.28 29.0417C33.3708 28.9509 33.4219 28.8277 33.4219 28.6992V25.793C33.4219 25.6645 33.3708 25.5413 33.28 25.4505C33.1892 25.3596 33.066 25.3086 32.9375 25.3086H9.6875ZM9.6875 33.543C9.55904 33.543 9.43583 33.594 9.34499 33.6848C9.25416 33.7757 9.20312 33.8989 9.20312 34.0273V36.9336C9.20312 37.0621 9.25416 37.1853 9.34499 37.2761C9.43583 37.3669 9.55904 37.418 9.6875 37.418H20.8281C20.9566 37.418 21.0798 37.3669 21.1706 37.2761C21.2615 37.1853 21.3125 37.0621 21.3125 36.9336V34.0273C21.3125 33.8989 21.2615 33.7757 21.1706 33.6848C21.0798 33.594 20.9566 33.543 20.8281 33.543H9.6875Z" fill="#373737"/>
</svg>
