<svg width="16" height="16" viewBox="0 0 16 16" fill="none" xmlns="http://www.w3.org/2000/svg">
<path d="M1.7773 0C0.79507 0 -0.000488281 0.795556 -0.000488281 1.77778V14.2222C-0.000488281 15.2044 0.79507 16 1.7773 16H14.2218C15.204 16 15.9996 15.2044 15.9996 14.2222V1.77778C15.9996 0.795556 15.204 0 14.2218 0H1.7773ZM1.7773 1.77778H14.2218V14.2222H1.7773V1.77778ZM7.81378 5.2066C7.28933 5.20215 6.84484 5.20893 6.59329 5.3316C6.42618 5.41338 6.29716 5.59697 6.37627 5.60764C6.47316 5.62008 6.69208 5.66639 6.8103 5.82639C6.96052 6.03172 6.95614 6.49306 6.95614 6.49306C6.95614 6.49306 7.0419 7.76192 6.75301 7.92014C6.55479 8.02859 6.28319 7.80839 5.69919 6.79861C5.39963 6.28039 5.17488 5.70833 5.17488 5.70833C5.17488 5.70833 5.13068 5.60029 5.05335 5.5434C4.95824 5.47407 4.82592 5.45139 4.82592 5.45139L3.43008 5.45833C3.43008 5.45833 3.21922 5.45879 3.14188 5.55035C3.07344 5.63213 3.13668 5.7934 3.13668 5.7934C3.13668 5.7934 4.2309 8.34386 5.47002 9.63542C6.60691 10.8194 7.89537 10.7118 7.89537 10.7118H8.48045C8.48045 10.7118 8.65803 10.7219 8.74781 10.625C8.83048 10.5352 8.82767 10.3958 8.82767 10.3958C8.82767 10.3958 8.81655 9.61035 9.1801 9.49479C9.53922 9.38102 9.9994 10.2534 10.4874 10.5885C10.8554 10.8428 11.1367 10.7882 11.1367 10.7882L12.4423 10.7708C12.4423 10.7708 13.1243 10.7279 12.8034 10.1875C12.7767 10.1431 12.6151 9.78961 11.8329 9.0625C11.0133 8.30161 11.1232 8.42408 12.1089 7.10764C12.7098 6.30675 12.9501 5.81742 12.8746 5.60764C12.8026 5.40675 12.3607 5.46007 12.3607 5.46007L10.8919 5.46875C10.8919 5.46875 10.7818 5.45285 10.7009 5.50174C10.6218 5.54974 10.5707 5.65972 10.5707 5.65972C10.5707 5.65972 10.3384 6.28103 10.0273 6.80903C9.37399 7.92281 9.11231 7.98079 9.00475 7.91146C8.75587 7.75146 8.81899 7.26592 8.81899 6.92014C8.81899 5.84103 8.98132 5.39075 8.49954 5.27431C8.33954 5.2352 8.22267 5.21104 7.81378 5.2066Z" fill="#212121"/>
</svg>
