<svg width="16" height="16" viewBox="0 0 16 16" fill="none" xmlns="http://www.w3.org/2000/svg">
<path d="M1.77774 0C0.797318 0 0 0.797333 0 1.77778V14.2222C0 15.2027 0.797318 16 1.77774 16H7.66305H10.1456H14.222C15.2024 16 15.9997 15.2027 15.9997 14.2222V1.77778C15.9997 0.797333 15.2024 0 14.222 0H1.77774ZM1.77774 1.77778H14.222L14.2237 14.2222H10.1456V10.6979H12.248L12.5605 8.27604H10.1595V6.73264C10.1595 6.0322 10.3547 5.55903 11.3592 5.55903H12.6282V3.39757C12.0105 3.33446 11.3902 3.30378 10.7689 3.30556C8.92537 3.30556 7.66305 4.43075 7.66305 6.49653V8.27952H5.57975V10.7014H7.66305V14.2222H1.77774V1.77778Z" fill="#212121"/>
</svg>
