<svg width="20" height="20" viewBox="0 0 20 20" fill="none" xmlns="http://www.w3.org/2000/svg">
<path d="M19.7551 18.5796L14.9469 13.7714C16.1388 12.3183 16.8571 10.4571 16.8571 8.42854C16.8571 3.77548 13.0816 -3.05176e-05 8.42857 -3.05176e-05C3.77143 -3.05176e-05 0 3.77548 0 8.42854C0 13.0816 3.77143 16.8571 8.42857 16.8571C10.4571 16.8571 12.3143 16.1428 13.7673 14.951L18.5755 19.7551C18.902 20.0816 19.4286 20.0816 19.7551 19.7551C20.0816 19.4326 20.0816 18.902 19.7551 18.5796ZM8.42857 15.1796C4.70204 15.1796 1.67347 12.151 1.67347 8.42854C1.67347 4.70609 4.70204 1.67344 8.42857 1.67344C12.151 1.67344 15.1837 4.70609 15.1837 8.42854C15.1837 12.151 12.151 15.1796 8.42857 15.1796Z" fill="#212121"/>
</svg>
