<svg width="16" height="16" viewBox="0 0 16 16" fill="none" xmlns="http://www.w3.org/2000/svg">
<path d="M4.44392 0C1.99327 0 -0.000488281 1.99378 -0.000488281 4.44445V11.5556C-0.000488281 14.0062 1.99327 16 4.44392 16H11.555C14.0056 16 15.9994 14.0062 15.9994 11.5556V4.44445C15.9994 1.99378 14.0056 0 11.555 0H4.44392ZM4.44392 1.77778H11.555C13.0252 1.77778 14.2216 2.97422 14.2216 4.44445V11.5556C14.2216 13.0258 13.0252 14.2222 11.555 14.2222H4.44392C2.97371 14.2222 1.77728 13.0258 1.77728 11.5556V4.44445C1.77728 2.97422 2.97371 1.77778 4.44392 1.77778ZM12.4439 2.66667C12.2081 2.66667 11.982 2.76032 11.8153 2.92702C11.6486 3.09372 11.555 3.31981 11.555 3.55556C11.555 3.7913 11.6486 4.0174 11.8153 4.1841C11.982 4.35079 12.2081 4.44445 12.4439 4.44445C12.6796 4.44445 12.9057 4.35079 13.0724 4.1841C13.2391 4.0174 13.3327 3.7913 13.3327 3.55556C13.3327 3.31981 13.2391 3.09372 13.0724 2.92702C12.9057 2.76032 12.6796 2.66667 12.4439 2.66667ZM7.99945 3.55556C5.5488 3.55556 3.55504 5.54933 3.55504 8C3.55504 10.4507 5.5488 12.4444 7.99945 12.4444C10.4501 12.4444 12.4439 10.4507 12.4439 8C12.4439 5.54933 10.4501 3.55556 7.99945 3.55556ZM7.99945 5.33333C9.46966 5.33333 10.6661 6.52978 10.6661 8C10.6661 9.47022 9.46966 10.6667 7.99945 10.6667C6.52924 10.6667 5.3328 9.47022 5.3328 8C5.3328 6.52978 6.52924 5.33333 7.99945 5.33333Z" fill="#212121"/>
</svg>
