<svg width="21" height="17" viewBox="0 0 21 17" fill="none" xmlns="http://www.w3.org/2000/svg">
<path d="M10.4999 0C7.44132 0 4.73432 0.316407 3.08786 0.5625C1.74021 0.76172 0.667962 1.81641 0.42187 3.16992C0.210935 4.35352 0 6.08203 0 8.25C0 10.418 0.210935 12.1465 0.42187 13.3301C0.667962 14.6836 1.74021 15.7324 3.08786 15.9375C4.74018 16.1836 7.4589 16.5 10.4999 16.5C13.5409 16.5 16.2537 16.1836 17.906 15.9375H17.9119C19.2595 15.7383 20.3318 14.6836 20.5779 13.3301C20.7888 12.1406 20.9998 10.4121 20.9998 8.25C20.9998 6.08203 20.7888 4.35352 20.572 3.16992C20.3318 1.81641 19.2595 0.76172 17.9119 0.5625C16.2654 0.316407 13.5584 0 10.4999 0ZM10.4999 1.5C13.453 1.5 16.0955 1.80469 17.6892 2.04492C18.3924 2.15039 18.9607 2.70117 19.0955 3.4336C19.2947 4.54102 19.4998 6.18164 19.4998 8.25C19.4998 10.3184 19.2947 11.959 19.1013 13.0605C18.9666 13.7988 18.3982 14.3496 17.6892 14.4551C16.0838 14.6895 13.4354 15 10.4999 15C7.56437 15 4.9101 14.6895 3.31051 14.4551C2.60739 14.3496 2.03318 13.7988 1.89842 13.0605C1.70506 11.9531 1.49998 10.3184 1.49998 8.25C1.49998 6.17578 1.70506 4.54102 1.89842 3.4336C2.03318 2.70117 2.60153 2.15039 3.30465 2.05078H3.31051C4.90424 1.81055 7.54679 1.5 10.4999 1.5ZM7.49991 4.5V12L14.9998 8.25L7.49991 4.5Z" fill="#212121"/>
</svg>
