<svg width="264" height="40" viewBox="0 0 264 40" fill="none" xmlns="http://www.w3.org/2000/svg">
<path d="M94.0889 15.9404H90.9986V6.95819L81.8595 15.9404H80.7854V0.882567H83.8757V9.84598L93.0902 0.882567H94.0889V15.9404ZM116.626 0.882567H119.848V15.9404H116.626V9.84598H109.861V15.9404H106.639V0.882567H109.861V6.93944H116.607V0.882567H116.626ZM144.495 15.1903C142.931 16.0154 141.292 16.3529 139.521 16.3529C134.81 16.3529 131.606 12.9776 131.606 8.5146C131.606 3.77036 134.942 0.601288 139.917 0.601288C141.481 0.601288 142.875 0.920072 144.382 1.55764V4.6517C142.988 3.92038 141.631 3.69535 140.161 3.69535C137.128 3.69535 135.13 5.45803 135.13 8.5146C135.224 11.6087 137.41 13.2588 139.935 13.2588C141.612 13.2588 143.233 12.7338 144.477 11.9087V15.1903H144.495ZM154.973 0.882567H167.654V3.69535H162.868V15.9404H159.759V3.69535H154.973V0.882567ZM191.981 15.9404H188.891V6.95819L179.752 15.9404H178.678V0.882567H181.768V9.84598L190.983 0.882567H191.981V15.9404ZM203.005 0.882567H215.687V3.69535H210.9V15.9404H207.791V3.69535H203.005V0.882567ZM237.262 0.882567H240.73L235.039 12.2837C233.626 15.1153 232.08 16.1654 230.008 16.1654C229.292 16.1654 228.67 16.0716 228.067 15.8841V13.1463C228.5 13.2963 228.952 13.3901 229.386 13.3901C230.29 13.3901 231.157 13.0526 231.854 12.2462L225.806 0.882567H229.367L233.607 9.11466L237.262 0.882567ZM250.698 0.882567H263.38V3.69535H258.593V15.9404H255.484V3.69535H250.698V0.882567ZM80.7854 24.0224H93.7497V39.0802H90.5275V26.929H84.0265V39.0802H80.8042V24.0224H80.7854ZM109.541 39.0802H106.318V24.0224H112.273C116.72 24.0224 118.378 26.4602 118.378 29.348C118.378 33.3046 115.307 34.7485 112.179 34.7485C111.387 34.7485 110.294 34.6923 109.541 34.5423V39.0802ZM109.541 31.917C110.106 32.0295 111.142 32.067 111.727 32.067C113.592 32.067 115.005 31.3357 115.005 29.3105C115.005 27.9603 114.402 26.854 112.085 26.854H109.541V31.917ZM126.538 39.0802L134 24.0224H134.885L142.536 39.0802H139.012L137.768 36.4362H131.098L129.873 39.0802H126.538ZM134.433 29.273L132.285 33.9047H136.619L134.433 29.273ZM153.484 24.0224C155.18 23.9474 157.045 23.9099 158.835 23.9099C163.056 23.9099 164.941 25.3913 164.941 27.6416C164.941 29.2355 164.149 30.4356 162.717 31.0732C164.47 31.542 165.525 32.6858 165.525 34.6173C165.525 37.6176 162.793 39.1365 158.685 39.1365C156.442 39.1365 154.69 39.0802 153.484 39.024V24.0224ZM156.706 26.5352V30.1918H158.835C160.418 30.1918 161.549 29.5542 161.549 28.2416C161.549 27.079 160.475 26.4789 158.685 26.4789C157.931 26.4789 157.29 26.4977 156.706 26.5352ZM156.706 32.6483V36.4737C157.422 36.53 158.119 36.5675 158.779 36.5675C161.002 36.5675 162.133 35.9299 162.133 34.5048C162.133 33.2109 160.965 32.6483 158.93 32.6483H156.706ZM175.248 39.0802L182.71 24.0224H183.596L191.246 39.0802H187.723L186.479 36.4362H179.808L178.584 39.0802H175.248ZM183.144 29.273L180.995 33.9234H185.33L183.144 29.273ZM0.191406 14.1777V38.9115L12.7601 26.4039L0.191406 14.1777ZM12.7789 26.4039L25.9129 39.474L38.7642 26.4039V0.826312L12.7789 26.4039ZM71.439 38.9115V0.826312H48.5252V38.9115H71.439Z" fill="url(#paint0_linear)"/>
<defs>
<linearGradient id="paint0_linear" x1="169.06" y1="-53.3078" x2="87.3178" y2="88.9665" gradientUnits="userSpaceOnUse">
<stop stop-color="#6BB4FF"/>
<stop offset="1" stop-color="#0084E2"/>
</linearGradient>
</defs>
</svg>
